<svg width="16" height="17" viewBox="0 0 16 17" fill="none" xmlns="http://www.w3.org/2000/svg">
<path d="M7.03199 10.9362L7.03199 11.9362L9.03199 11.9362L9.03199 10.9362L7.03199 10.9362ZM8.03199 2.22342L8.73144 1.50874L8.03961 0.83165L7.3404 1.50112L8.03199 2.22342ZM4.40434 4.31235L3.68205 5.00394L5.06522 6.44853L5.78751 5.75694L4.40434 4.31235ZM10.205 5.74933L10.9197 6.44878L12.3186 5.01942L11.6039 4.31997L10.205 5.74933ZM15.0002 15.7766L15.0002 16.7766L16.0002 16.7766L16.0002 15.7766L15.0002 15.7766ZM1.00018 15.7766L0.000183105 15.7766L0.000183149 16.7766L1.00018 16.7766L1.00018 15.7766ZM9.03199 10.9362L9.03199 2.22342L7.03199 2.22342L7.03199 10.9362L9.03199 10.9362ZM7.3404 1.50112L4.40434 4.31235L5.78751 5.75694L8.72357 2.94571L7.3404 1.50112ZM7.33254 2.9381L10.205 5.74933L11.6039 4.31997L8.73144 1.50874L7.33254 2.9381ZM15.0002 14.7766L1.00018 14.7766L1.00018 16.7766L15.0002 16.7766L15.0002 14.7766ZM16.0002 15.7766L16.0002 10.9362L14.0002 10.9362L14.0002 15.7766L16.0002 15.7766ZM2.00018 15.7766L2.00018 10.9362L0.000183132 10.9362L0.000183105 15.7766L2.00018 15.7766Z" fill="#191919"/>
</svg>
