<svg width="94" height="26" viewBox="0 0 94 26" fill="none" xmlns="http://www.w3.org/2000/svg">
<path fill-rule="evenodd" clip-rule="evenodd" d="M25.2228 20.7552V0.055992H28.9513V7.75832C28.9513 7.79565 28.9513 7.83297 28.9513 7.8703C29.9921 7.08565 31.233 6.61102 32.5312 6.50096C33.8294 6.3909 35.1323 6.64988 36.2901 7.24814C40.6399 9.54391 40.7269 17.688 36.1596 19.8406C34.8279 20.4156 33.3647 20.6156 31.9278 20.4192C30.3184 20.2513 29.6659 19.8966 28.9388 19.262V20.7801L25.2228 20.7552ZM31.5177 10.023C36.2217 9.20795 36.9488 16.1823 32.8351 16.9476C28.2491 17.744 28.0937 10.1225 31.5177 10.023ZM23.1349 16.2446C22.6254 16.3877 22.0972 16.6116 21.5814 16.7174C19.3133 17.184 15.1561 17.5386 14.4974 14.9194C16.9333 14.9194 20.2081 15.1122 22.5384 14.9194C25.7075 14.6518 24.6325 6.8313 18.2383 6.4269C12.7264 6.07849 9.9487 9.23905 10.3899 14.5523C10.4564 15.9401 11.006 17.2608 11.9434 18.2852C14.572 21.0912 20.8109 21.2965 23.1287 18.7332L23.1349 16.2446ZM14.5347 11.9517C15.1561 8.74755 19.9844 8.59824 20.4567 11.9517H14.5347ZM4.48033 20.6308C4.48033 19.3056 4.4182 17.6755 4.4182 17.296C4.4182 15.666 4.4182 13.9986 4.4182 12.3747H9.17815C9.27912 11.1017 9.72849 9.88117 10.4769 8.8471H4.41198V3.54008H13.907V0H0V3.53386L0.0621443 20.6308H4.48033ZM40.4659 19.5171C42.1997 21.1161 49.4515 21.1907 51.0298 18.6648C51.3674 18.1605 51.5969 17.5916 51.7038 16.9941C51.8108 16.3966 51.7929 15.7834 51.6512 15.1931C51.0298 12.7045 48.6623 12.1508 46.506 11.6717C45.984 11.5597 45.3067 11.4913 44.7412 11.3171C43.1566 10.8193 43.4362 9.73056 45.0333 9.4817C46.6303 9.23284 48.6747 9.8301 50.0915 9.95454V7.24814C48.4137 6.00383 43.3803 6.00383 41.5347 7.30414C39.54 8.69156 39.7824 11.3171 40.6772 12.6298C42.3861 15.1682 47.3573 14.714 48.0284 15.9584C49.352 18.4097 42.6471 17.2027 40.4535 16.7236L40.4659 19.5171ZM52.7884 6.2527V26H56.5168V19.2869C56.5168 19.2496 56.5168 19.2123 56.5168 19.1749C57.5589 19.9594 58.8008 20.4339 60.0999 20.544C61.3991 20.654 62.7029 20.3952 63.8618 19.7971C65.2776 18.9814 66.3157 17.6403 66.7514 16.0641C66.3359 14.8637 66.1258 13.6017 66.13 12.3312C66.1287 11.528 66.2142 10.7269 66.3847 9.94209C65.8483 8.7535 64.9142 7.78971 63.7438 7.21704C62.4093 6.64433 60.9453 6.4423 59.5058 6.63221C58.4042 6.64873 57.3454 7.06172 56.523 7.79565V6.27758L52.7884 6.2527ZM59.0459 16.9849C63.75 17.8 64.477 10.8256 60.3633 10.0603C55.7525 9.2826 55.6282 16.904 59.0149 17.0036L59.0459 16.9849ZM94 7.08639V4.21823H91.2845V3.03614C91.3094 2.54287 91.3094 2.04866 91.2845 1.5554V0.037328H87.4193V7.67743C88.213 9.22597 88.6398 10.9367 88.6668 12.677C88.6937 14.4173 88.32 16.1404 87.5747 17.7129C87.9102 19.5793 88.9853 20.7863 92.4279 20.5561C92.964 20.5322 93.4937 20.4295 94 20.2513V17.072C92.9871 17.2711 91.794 17.5075 91.3777 16.0952C91.3224 15.7599 91.2912 15.421 91.2845 15.0811V7.77076H94V7.08639Z" fill="white"/>
<path fill-rule="evenodd" clip-rule="evenodd" d="M77.657 2.86815C78.1396 2.87551 78.6092 3.02551 79.0069 3.2993C79.4046 3.57308 79.7126 3.95845 79.8922 4.40696C80.0718 4.85548 80.115 5.34714 80.0164 5.82016C79.9177 6.29318 79.6817 6.72646 79.3379 7.06556C78.994 7.40466 78.5577 7.63444 78.0838 7.72603C77.6099 7.81763 77.1196 7.76696 76.6744 7.58038C76.2292 7.3938 75.849 7.07964 75.5816 6.67737C75.3142 6.27511 75.1714 5.80268 75.1714 5.31946C75.1812 4.66592 75.4474 4.04248 75.9125 3.58381C76.3775 3.12515 77.0042 2.86808 77.657 2.86815Z" fill="white"/>
<path fill-rule="evenodd" clip-rule="evenodd" d="M77.4519 2.86815H77.6197L77.949 7.80187C77.7874 7.80187 77.6197 7.80187 77.4519 7.80187C76.7068 7.80513 75.9698 7.95529 75.2827 8.24376C74.5956 8.53224 73.972 8.9534 73.4475 9.48317C72.9229 10.013 72.5078 10.641 72.2257 11.3314C71.9436 12.0218 71.8001 12.7611 71.8033 13.5071C71.8032 13.7398 71.8157 13.9725 71.8406 14.2039L67.1366 15.554C66.8361 14.0229 66.8764 12.4443 67.2544 10.9305C67.6325 9.41674 68.339 8.00497 69.3238 6.79561C70.3086 5.58626 71.5476 4.60903 72.9524 3.93344C74.3572 3.25786 75.8935 2.90051 77.4519 2.88682" fill="url(#paint0_linear_5287_2381)"/>
<path fill-rule="evenodd" clip-rule="evenodd" d="M77.3152 23.2563H77.1412L76.8119 18.3163C76.9795 18.326 77.1476 18.326 77.3152 18.3163C78.0603 18.3123 78.7972 18.1613 79.484 17.8721C80.1708 17.5828 80.7939 17.161 81.3179 16.6307C81.8418 16.1003 82.2563 15.4718 82.5376 14.7811C82.819 14.0903 82.9617 13.3509 82.9576 12.6049C82.9576 12.3742 82.9451 12.1437 82.9203 11.9143L87.6305 10.5767C87.7579 11.2495 87.8224 11.9326 87.8232 12.6174C87.8364 15.4214 86.7369 18.116 84.7665 20.1087C82.796 22.1013 80.1159 23.229 77.3152 23.2438" fill="url(#paint1_linear_5287_2381)"/>
<path fill-rule="evenodd" clip-rule="evenodd" d="M77.104 23.2501C76.6212 23.2427 76.1513 23.0925 75.7535 22.8185C75.3557 22.5444 75.0477 22.1587 74.8682 21.7098C74.6888 21.2609 74.646 20.769 74.7452 20.2958C74.8443 19.8226 75.081 19.3893 75.4254 19.0505C75.7699 18.7116 76.2068 18.4823 76.6811 18.3915C77.1554 18.3006 77.6459 18.3521 78.091 18.5396C78.5361 18.7272 78.9158 19.0423 79.1825 19.4454C79.4492 19.8485 79.5908 20.3215 79.5897 20.805C79.5782 21.4574 79.3113 22.0793 78.8464 22.5366C78.3815 22.994 77.7558 23.2502 77.104 23.2501Z" fill="white"/>
<defs>
<linearGradient id="paint0_linear_5287_2381" x1="72.4433" y1="2.86815" x2="72.4433" y2="15.554" gradientUnits="userSpaceOnUse">
<stop stop-color="white"/>
<stop offset="1" stop-color="white" stop-opacity="0"/>
</linearGradient>
<linearGradient id="paint1_linear_5287_2381" x1="82.3176" y1="23.3403" x2="82.3176" y2="12.7995" gradientUnits="userSpaceOnUse">
<stop stop-color="white"/>
<stop offset="1" stop-color="white" stop-opacity="0"/>
</linearGradient>
</defs>
</svg>
