<svg id="search" width="16" height="16" viewBox="0 0 16 16" fill="#fff" xmlns="http://www.w3.org/2000/svg">
<path d="M12.1408 10.7743C11.7468 10.3873 11.1137 10.393 10.7267 10.787C10.3397 11.181 10.3453 11.8142 10.7393 12.2012L12.1408 10.7743ZM13.4243 14.8384L14.1377 15.5392L15.5392 14.1123L14.8257 13.4116L13.4243 14.8384ZM12.2127 7.44318C12.2127 9.9493 10.1394 12.0114 7.54385 12.0114V14.0114C11.21 14.0114 14.2127 11.0875 14.2127 7.44318H12.2127ZM7.54385 12.0114C4.94835 12.0114 2.875 9.9493 2.875 7.44318H0.875C0.875 11.0875 3.87771 14.0114 7.54385 14.0114V12.0114ZM2.875 7.44318C2.875 4.93706 4.94835 2.875 7.54385 2.875V0.875C3.87771 0.875 0.875 3.79886 0.875 7.44318H2.875ZM7.54385 2.875C10.1394 2.875 12.2127 4.93706 12.2127 7.44318H14.2127C14.2127 3.79886 11.21 0.875 7.54385 0.875V2.875ZM10.7393 12.2012L13.4243 14.8384L14.8257 13.4116L12.1408 10.7743L10.7393 12.2012Z" fill="white"/>
</svg>
