<svg width="11" height="12" viewBox="0 0 11 12" fill="none" xmlns="http://www.w3.org/2000/svg">
<path d="M10.1284 5.73689C10.1289 5.38724 10.0991 5.0382 10.0394 4.6936H5.16699V6.66971H7.9577C7.9006 6.98533 7.77973 7.28619 7.60238 7.55416C7.42504 7.82214 7.19489 8.05167 6.92581 8.22894V9.51166H8.59134C9.56654 8.61874 10.1284 7.29825 10.1284 5.73689Z" fill="#4285F4"/>
<path d="M5.16705 10.751C6.56133 10.751 7.73531 10.2963 8.59139 9.51241L6.92586 8.22969C6.4623 8.54182 5.86526 8.71997 5.16705 8.71997C3.81941 8.71997 2.67557 7.81779 2.26654 6.60205H0.550781V7.92397C0.98081 8.77376 1.64021 9.48813 2.45537 9.98733C3.27053 10.4865 4.20936 10.7509 5.16705 10.751Z" fill="#34A853"/>
<path d="M2.26592 6.60196C2.04968 5.9649 2.04968 5.27502 2.26592 4.63796V3.31604H0.550157C0.188402 4.03091 0 4.81989 0 5.61996C0 6.42002 0.188402 7.209 0.550157 7.92388L2.26592 6.60196Z" fill="#FBBC04"/>
<path d="M5.16705 2.52009C5.90386 2.50813 6.61582 2.7846 7.14904 3.28972L8.62369 1.82528C7.6886 0.953079 6.44983 0.474227 5.16705 0.489106C4.20936 0.48915 3.27053 0.753529 2.45537 1.25273C1.64021 1.75193 0.98081 2.4663 0.550781 3.31609L2.26654 4.63801C2.67557 3.42227 3.81941 2.52009 5.16705 2.52009Z" fill="#EA4335"/>
</svg>
